<?xml version="1.0" standalone="no"?>
<!DOCTYPE svg PUBLIC "-//W3C//DTD SVG 20010904//EN"
 "http://www.w3.org/TR/2001/REC-SVG-20010904/DTD/svg10.dtd">
<svg version="1.0" xmlns="http://www.w3.org/2000/svg"
 width="512.000000pt" height="512.000000pt" viewBox="0 0 512.000000 512.000000"
 preserveAspectRatio="xMidYMid meet">
<metadata>
Created by potrace 1.14, written by Peter Selinger 2001-2017
</metadata>
<g transform="translate(0.000000,512.000000) scale(0.100000,-0.100000)"
fill="#000000" stroke="none">
<path d="M2315 5109 c-800 -83 -1501 -518 -1927 -1196 -487 -774 -516 -1777
-75 -2578 200 -364 487 -676 841 -913 238 -159 600 -311 876 -366 214 -43 295
-51 530 -51 236 0 333 10 532 51 880 184 1615 842 1898 1702 92 278 125 491
125 802 0 301 -32 513 -116 775 -124 390 -330 728 -622 1024 -399 404 -893
653 -1462 737 -123 18 -478 26 -600 13z m440 -982 c18 -18 38 -51 44 -72 29
-106 -5 -286 -86 -450 -58 -117 -85 -155 -111 -155 -22 0 -22 1 14 71 41 82
74 202 74 268 0 104 -36 156 -107 154 -96 -3 -245 -174 -313 -360 l-29 -80 58
-16 c31 -9 65 -25 75 -36 17 -19 17 -20 -19 -30 -24 -6 -46 -6 -66 1 -51 18
-99 1 -149 -51 -46 -49 -87 -77 -97 -67 -11 10 17 84 43 115 l25 30 -46 27
c-121 70 -320 125 -460 127 -117 1 -186 -16 -230 -58 -122 -115 85 -308 423
-395 41 -11 43 -12 28 -29 -15 -17 -22 -17 -98 -4 -236 41 -465 149 -587 277
-112 119 -108 222 12 280 77 38 155 49 292 43 227 -11 502 -104 648 -220 37
-28 40 -29 77 -17 38 13 38 13 59 104 25 104 100 268 165 361 55 77 157 172
211 196 64 29 111 25 150 -14z m-13 -792 c147 -31 268 -96 378 -205 86 -84
139 -158 197 -275 47 -94 65 -146 133 -374 84 -285 146 -416 248 -518 79 -79
211 -149 316 -169 25 -4 34 -9 25 -14 -8 -4 -448 -173 -979 -375 -531 -202
-1005 -382 -1054 -401 -48 -19 -92 -34 -98 -34 -5 0 2 15 15 33 77 102 121
236 120 367 0 150 -32 250 -173 550 -145 308 -175 424 -168 645 4 105 10 146
31 210 91 277 354 496 673 559 91 19 253 19 336 1z m988 -1825 c0 -109 -96
-210 -213 -226 -63 -9 -147 18 -193 61 -20 19 -35 38 -32 41 8 8 411 162 426
163 8 1 12 -13 12 -39z"/>
</g>
</svg>
